# File created by Blade
# Date/Time:  Wed Jan 21 14:43:55 2015
# Frame Rate: 120.000 fps
#------------------------------------------------------
:FULLY-SPECIFIED
:DEGREES
1479
root 13.337002 35.036064 -21.036234 -171.226531 -5.359195 172.316755
Spine -19.974506 -6.611297 32.804270
Head 22.338924 -6.920462 35.406738
LeftShoulder -12.194978 -65.141034 67.324306
LeftArm 65.817166 -34.733992 -24.133447
LeftForeArm -59.863711 -0.000000 87.380640
LeftHand 3.970625 -0.000000 -8.427040
LeftHandThumb1 -26.253704 0.000000 33.147579
RightShoulder -16.194605 18.680777 -30.631312
RightArm 81.404961 61.862133 39.871185
RightForeArm 28.342690 -0.000000 77.859283
RightHand 10.527197 -0.000000 26.191042
RightHandThumb1 -24.326973 -0.000000 -32.862282
LeftUpLeg 0.750258 4.246521 -14.970466
LeftLeg -6.332326 -0.000000 0.000000
LeftFoot -20.219798 26.557706 -11.045576
LeftToeBase 24.030882 -0.000000 -0.000000
RightUpLeg 1.885169 -21.355073 -19.541735
RightLeg -4.296673 -0.000000 0.000000
RightFoot -17.598924 -16.735803 22.053161
RightToeBase 26.551515 -0.000000 -0.000000
1480
root 13.348150 35.038555 -21.027559 -171.216667 -5.390805 172.316438
Spine -19.959714 -6.617545 32.809388
Head 22.308296 -6.895904 35.430610
LeftShoulder -12.250891 -65.175690 67.375494
LeftArm 65.772163 -34.686664 -24.152424
LeftForeArm -60.101887 0.000000 87.439755
LeftHand 4.037803 -0.000000 -8.943329
LeftHandThumb1 -26.253704 0.000000 33.147579
RightShoulder -16.219067 18.719636 -30.666302
RightArm 81.387683 61.775001 39.892666
RightForeArm 28.186931 -0.000000 77.877756
RightHand 10.600274 -0.000000 26.098516
RightHandThumb1 -24.326973 -0.000000 -32.862282
LeftUpLeg 0.707000 4.272270 -14.953668
LeftLeg -6.292921 -0.000000 0.000000
LeftFoot -20.217232 26.506092 -11.048134
LeftToeBase 24.055310 -0.000000 -0.000000
RightUpLeg 1.874571 -21.367188 -19.524003
RightLeg -4.295120 -0.000000 0.000000
RightFoot -17.597516 -16.730407 22.043450
RightToeBase 26.562112 -0.000000 -0.000000
1481
root 13.360073 35.041230 -21.016910 -171.198241 -5.417138 172.332004
Spine -19.947874 -6.596031 32.816546
Head 22.272907 -6.904075 35.451672
LeftShoulder -12.232491 -65.229066 67.372555
LeftArm 65.710513 -34.677122 -24.096088
LeftForeArm -60.120089 -0.000000 87.437372
LeftHand 3.841518 -0.000000 -8.831227
LeftHandThumb1 -26.253704 0.000000 33.147579
RightShoulder -15.976933 17.906260 -30.122716
RightArm 82.601065 62.650030 40.520424
RightForeArm 28.400390 -0.000000 77.581589
RightHand 10.672291 0.000000 26.238609
RightHandThumb1 -24.326973 -0.000000 -32.862282
LeftUpLeg 0.653002 4.269347 -14.921088
LeftLeg -6.261200 -0.000000 0.000000
LeftFoot -20.206880 26.501089 -11.028845
LeftToeBase 24.090633 -0.000000 -0.000000
RightUpLeg 1.838778 -21.331781 -19.484912
RightLeg -4.272391 -0.000000 0.000000
RightFoot -17.620828 -16.740132 22.102290
RightToeBase 26.564754 -0.000000 -0.000000
1482
root 13.371115 35.043290 -21.007818 -171.193385 -5.454516 172.328507
Spine -19.920505 -6.608528 32.805911
Head 22.217152 -6.904345 35.471859
LeftShoulder -12.268607 -65.240394 67.404181
LeftArm 65.689829 -34.671711 -24.076406
LeftForeArm -60.057003 0.000000 87.439078
LeftHand 3.949342 -0.000000 -8.911514
LeftHandThumb1 -26.253704 0.000000 33.147579
RightShoulder -16.047944 18.267686 -30.368993
RightArm 82.034530 62.313758 40.222051
RightForeArm 28.372749 -0.000000 77.718187
RightHand 10.622886 -0.000000 26.199690
RightHandThumb1 -24.326973 -0.000000 -32.862282
LeftUpLeg 0.636281 4.216869 -14.904345
LeftLeg -6.261556 -0.000000 0.000000
LeftFoot -20.196583 26.525889 -11.039939
LeftToeBase 24.076692 -0.000000 -0.000000
RightUpLeg 1.839878 -21.353460 -19.471698
RightLeg -4.277655 -0.000000 0.000000
RightFoot -17.614023 -16.717422 22.119828
RightToeBase 26.518999 -0.000000 -0.000000
1483
root 13.384711 35.045682 -20.999283 -171.191612 -5.490477 172.326301
Spine -19.883134 -6.614307 32.783742
Head 22.120703 -6.875308 35.544801
LeftShoulder -12.353697 -65.217999 67.453013
LeftArm 65.781458 -34.655292 -24.158613
LeftForeArm -60.101494 -0.000000 87.421762
LeftHand 4.000709 -0.000000 -8.861982
LeftHandThumb1 -26.253704 0.000000 33.147579
RightShoulder -16.107185 18.432946 -30.463972
RightArm 81.871816 62.159172 40.147694
RightForeArm 28.376968 -0.000000 77.758435
RightHand 10.585823 -0.000000 26.217944
RightHandThumb1 -24.326973 -0.000000 -32.862282
LeftUpLeg 0.611533 4.207890 -14.881557
LeftLeg -6.239863 -0.000000 0.000000
LeftFoot -20.192189 26.497173 -11.060360
LeftToeBase 24.113233 -0.000000 -0.000000
RightUpLeg 1.848551 -21.320723 -19.455056
RightLeg -4.288855 -0.000000 0.000000
RightFoot -17.674960 -16.788593 22.033448
RightToeBase 26.805121 -0.000000 -0.000000
1484
root 13.397295 35.047850 -20.989401 -171.189438 -5.534796 172.336365
Spine -19.867407 -6.624675 32.779625
Head 22.090719 -6.887884 35.553872
LeftShoulder -12.250613 -65.177545 67.347117
LeftArm 65.788536 -34.716149 -24.099798
LeftForeArm -60.118854 0.000000 87.402228
LeftHand 3.934246 -0.000000 -8.729820
LeftHandThumb1 -26.253704 0.000000 33.147579
RightShoulder -15.740329 17.232584 -29.690359
RightArm 83.651419 63.430244 41.114036
RightForeArm 28.506287 0.000000 77.360640
RightHand 10.832949 -0.000000 26.304803
RightHandThumb1 -24.326973 -0.000000 -32.862282
LeftUpLeg 0.585960 4.187599 -14.849720
LeftLeg -6.224580 -0.000000 0.000000
LeftFoot -20.180052 26.493745 -11.030701
LeftToeBase 24.154051 -0.000000 -0.000000
RightUpLeg 1.856670 -21.324656 -19.423008
RightLeg -4.303207 -0.000000 0.000000
RightFoot -17.660501 -16.778308 22.099409
RightToeBase 26.611344 -0.000000 -0.000000
1485
root 13.409136 35.050327 -20.980401 -171.190397 -5.577017 172.328388
Spine -19.839224 -6.643882 32.754311
Head 22.052197 -6.882176 35.566690
LeftShoulder -12.261341 -65.150293 67.352022
LeftArm 65.769547 -34.743440 -24.080534
LeftForeArm -60.158682 -0.000000 87.417436
LeftHand 3.987620 -0.000000 -8.955242
LeftHandThumb1 -26.253704 0.000000 33.147579
RightShoulder -15.963564 18.114312 -30.250981
RightArm 82.391670 62.528446 40.445805
RightForeArm 28.400678 0.000000 77.640108
RightHand 10.679771 -0.000000 26.271141
RightHandThumb1 -24.326973 -0.000000 -32.862282
LeftUpLeg 0.565539 4.184133 -14.838252
LeftLeg -6.206100 -0.000000 0.000000
LeftFoot -20.157343 26.472848 -11.048424
LeftToeBase 24.152295 -0.000000 -0.000000
RightUpLeg 1.874828 -21.324102 -19.414000
RightLeg -4.323045 -0.000000 0.000000
RightFoot -17.664450 -16.793810 22.111457
RightToeBase 26.631909 -0.000000 -0.000000
1486
root 13.422974 35.053373 -20.969255 -171.178463 -5.621086 172.345823
Spine -19.844450 -6.649851 32.757170
Head 22.074859 -6.887476 35.559518
LeftShoulder -12.140229 -65.162094 67.237040
LeftArm 65.699932 -34.762901 -23.976249
LeftForeArm -60.214875 0.000000 87.417425
LeftHand 3.886054 -0.000000 -8.926766
LeftHandThumb1 -26.253704 0.000000 33.147579
RightShoulder -15.634616 17.052309 -29.584827
RightArm 83.990580 63.625661 41.334392
RightForeArm 28.522056 0.000000 77.286166
RightHand 10.864134 -0.000000 26.355913
RightHandThumb1 -24.326973 -0.000000 -32.862282
LeftUpLeg 0.519684 4.186716 -14.799360
LeftLeg -6.177331 -0.000000 0.000000
LeftFoot -20.138754 26.449768 -11.001459
LeftToeBase 24.158047 -0.000000 -0.000000
RightUpLeg 1.863742 -21.365795 -19.366556
RightLeg -4.329419 -0.000000 0.000000
RightFoot -17.662151 -16.759749 22.140935
RightToeBase 26.633319 -0.000000 -0.000000
1487
root 13.437787 35.056451 -20.958823 -171.176324 -5.648666 172.360540
Spine -19.820704 -6.643749 32.745152
Head 22.079010 -6.872024 35.574315
LeftShoulder -12.136752 -65.162704 67.207339
LeftArm 65.744948 -34.730186 -24.025288
LeftForeArm -60.177389 -0.000000 87.400013
LeftHand 3.940490 -0.000000 -8.992668
LeftHandThumb1 -26.253704 0.000000 33.147579
RightShoulder -15.591031 17.057358 -29.573830
RightArm 83.966806 63.653206 41.276066
RightForeArm 28.507292 -0.000000 77.263092
RightHand 10.858256 -0.000000 26.373475
RightHandThumb1 -24.326973 -0.000000 -32.862282
LeftUpLeg 0.488843 4.187173 -14.763174
LeftLeg -6.158118 -0.000000 0.000000
LeftFoot -20.128571 26.432857 -11.005011
LeftToeBase 24.162294 -0.000000 -0.000000
RightUpLeg 1.858263 -21.405064 -19.324960
RightLeg -4.342692 -0.000000 0.000000
RightFoot -17.631251 -16.718328 22.156708
RightToeBase 26.565773 -0.000000 -0.000000
1488
root 13.452244 35.059245 -20.948078 -171.172680 -5.674506 172.369357
Spine -19.796839 -6.634062 32.727722
Head 22.093957 -6.850186 35.571699
LeftShoulder -12.133102 -65.182472 67.193084
LeftArm 65.711091 -34.717554 -24.007252
LeftForeArm -60.132328 0.000000 87.395742
LeftHand 3.833371 -0.000000 -8.872589
LeftHandThumb1 -26.253704 0.000000 33.147579
RightShoulder -15.556144 17.052555 -29.587893
RightArm 83.952003 63.675700 41.254710
RightForeArm 28.524081 -0.000000 77.260565
RightHand 10.847260 -0.000000 26.398974
RightHandThumb1 -24.326973 -0.000000 -32.862282
LeftUpLeg 0.463483 4.193910 -14.733913
LeftLeg -6.156039 -0.000000 0.000000
LeftFoot -20.099500 26.425548 -10.996812
LeftToeBase 24.201628 -0.000000 -0.000000
RightUpLeg 1.846506 -21.431667 -19.288504
RightLeg -4.342271 -0.000000 0.000000
RightFoot -17.659308 -16.740646 22.045209
RightToeBase 26.827064 -0.000000 -0.000000
1489
root 13.465515 35.062125 -20.937712 -171.172305 -5.691725 172.372951
Spine -19.766590 -6.616255 32.700277
Head 22.102745 -6.838979 35.562750
LeftShoulder -12.106155 -65.191892 67.150711
LeftArm 65.695722 -34.708807 -24.002897
LeftForeArm -60.241269 -0.000000 87.362054
LeftHand 3.821098 -0.000000 -8.992232
LeftHandThumb1 -26.253704 0.000000 33.147579
RightShoulder -15.519359 17.039820 -29.593644
RightArm 83.972078 63.694330 41.260541
RightForeArm 28.570087 -0.000000 77.237029
RightHand 10.836143 0.000000 26.432917
RightHandThumb1 -24.326973 -0.000000 -32.862282
LeftUpLeg 0.430670 4.252065 -14.714184
LeftLeg -6.133986 -0.000000 0.000000
LeftFoot -20.076216 26.369233 -10.979198
LeftToeBase 24.234181 -0.000000 -0.000000
RightUpLeg 1.832914 -21.437120 -19.260895
RightLeg -4.340264 -0.000000 0.000000
RightFoot -17.664821 -16.745066 22.011633
RightToeBase 26.877893 -0.000000 -0.000000
1490
root 13.477033 35.064556 -20.926768 -171.172990 -5.694419 172.372589
Spine -19.722532 -6.599203 32.665129
Head 22.097203 -6.803373 35.569384
LeftShoulder -12.167881 -65.210785 67.200043
LeftArm 65.706196 -34.627739 -24.067337
LeftForeArm -60.262485 -0.000000 87.360317
LeftHand 3.960753 -0.000000 -8.816898
LeftHandThumb1 -26.253704 0.000000 33.147579
RightShoulder -15.495272 16.994613 -29.596494
RightArm 84.022163 63.712067 41.304281
RightForeArm 28.520268 0.000000 77.219891
RightHand 10.899668 -0.000000 26.367901
RightHandThumb1 -24.326973 -0.000000 -32.862282
LeftUpLeg 0.420846 4.234512 -14.700520
LeftLeg -6.151744 -0.000000 0.000000
LeftFoot -20.043964 26.395411 -10.996483
LeftToeBase 24.150468 -0.000000 -0.000000
RightUpLeg 1.818336 -21.376759 -19.242772
RightLeg -4.342504 -0.000000 0.000000
RightFoot -17.691779 -16.766558 22.018918
RightToeBase 26.894385 -0.000000 -0.000000
